<svg version="1.2" xmlns="http://www.w3.org/2000/svg" viewBox="0 0 500 500" width="500" height="500">
	<title>Online learning-cuate-svg</title>
	<style>
		.s0 { fill: #263238 } 
		.s1 { fill: #bd1a41 } 
		.s2 { opacity: .1;fill: #000000 } 
		.s3 { fill: #ebebeb } 
		.s4 { fill: #c7c7c7 } 
		.s5 { fill: #ad6359 } 
		.s6 { fill: #455a64 } 
		.s7 { fill: #37474f } 
		.s8 { fill: #ff98b9 } 
		.s9 { fill: #000000 } 
		.s10 { fill: #ffffff } 
	</style>
	<g id="Pasta 1">
		<g id="freepik--Table--inject-10">
			<path id="Layer" class="s0" d="m13.6 351.9l59.1-0.3 59.1-0.1 118.1-0.1 118.2 0.1 59.1 0.1 59 0.3-59 0.3-59.1 0.1-118.2 0.2-118.1-0.2-59.1-0.1-59.1-0.3z"/>
		</g>
		<g id="freepik--Book--inject-10">
			<path id="Layer" class="s1" d="m105.8 365.1v-2.3l122-2.7 49.5 20.6v2.3l-120.7 12.4-50.8-30.3z"/>
			<path id="Layer" class="s2" d="m105.8 365.1v-2.3l122-2.7 49.5 20.6v2.3l-120.7 12.4-50.8-30.3z"/>
			<path id="Layer" class="s1" d="m105.8 362.8l122-7.3 49.5 25.2-120.7 12.4-50.8-30.3z"/>
			<path id="Layer" class="s3" d="m113.1 363.3l46.5 27.8 113.1-11.6-47.8-24.2c0 0-32.8-0.8-34.4-0.6-1.6 0.1-16.7 2.4-16.7 2.4 0 0-20.4 0.1-21.8 0.2-1.4 0.2-38.9 6-38.9 6z"/>
			<path id="Layer" class="s4" d="m173.8 357.2l5.7 3.4 5.6 3.4 11.2 7 11.1 7 5.4 3.5 5.5 3.6-5.7-3.4-5.6-3.5-11.2-6.9-11-7-5.5-3.6-5.5-3.5z"/>
			<path id="Layer" class="s4" d="m179.7 374.3q2.1-0.2 4.3-0.3 2.1-0.1 4.3-0.2 2.1-0.1 4.3-0.1 2.2 0 4.4 0-2.2 0.2-4.4 0.3-2.1 0.1-4.3 0.2-2.1 0.1-4.3 0.1c-1.4 0-2.9 0.1-4.3 0z"/>
			<path id="Layer" class="s4" d="m153.4 380.9q5.7-1.1 11.5-2.1 5.8-1 11.6-1.9 2.9-0.5 5.8-0.9 0.1 0 0.3 0 0.2-0.1 0.4-0.1 0.2 0 0.4 0 0.2 0 0.4 0l1.5-0.1 2.9-0.1q6-0.1 11.9-0.2-5.9 0.3-11.8 0.6l-3 0.1c-1 0.1-2 0.1-2.9 0.2-1.9 0.3-3.9 0.6-5.8 0.9l-11.6 1.8c-3.8 0.6-7.6 1.2-11.6 1.8z"/>
			<path id="Layer" class="s4" d="m156.7 382.8q5.5-1 11.1-2c3.7-0.7 7.5-1.3 11.2-1.9q2.8-0.5 5.6-0.9l1.5-0.2c0.4 0 0.9 0 1.4-0.1l2.9-0.1q5.8-0.2 11.6-0.3c-3.9 0.3-7.7 0.5-11.6 0.6l-2.9 0.2c-0.5 0-1 0-1.4 0l-1.4 0.2-5.6 1c-3.7 0.5-7.5 1.2-11.2 1.8-3.8 0.6-7.5 1.2-11.2 1.7z"/>
			<path id="Layer" class="s4" d="m159.9 384.5c3.8-0.6 7.6-1.1 11.3-1.7 3.8-0.6 7.6-1.1 11.3-1.7 1.9-0.2 3.8-0.5 5.7-0.7l5.8-0.4c3.9-0.3 7.7-0.5 11.6-0.7q-5.7 0.6-11.5 1l-5.8 0.5c-1.8 0.2-3.7 0.5-5.6 0.7-3.8 0.5-7.6 1.1-11.3 1.6-3.8 0.5-7.7 1-11.5 1.4z"/>
			<path id="Layer" class="s4" d="m215.3 378.9q5.3-1 10.7-1.8l2.6-0.4c0.5 0 0.9-0.1 1.4-0.1l1.4-0.1 5.4-0.3q5.5-0.4 10.9-0.7 5.5-0.3 10.9-0.5-5.4 0.4-10.8 0.8c-3.7 0.2-7.3 0.5-10.9 0.8l-5.5 0.3-1.3 0.1c-0.5 0-0.9 0.1-1.3 0.2l-2.7 0.3q-5.4 0.8-10.8 1.4z"/>
			<path id="Layer" class="s4" d="m212.3 376.7q5.2-0.8 10.4-1.4c1.8-0.2 3.5-0.4 5.3-0.5l5.2-0.4c3.5-0.2 7.1-0.4 10.6-0.6q5.3-0.3 10.5-0.6c-3.4 0.3-6.9 0.6-10.5 0.8-3.6 0.3-7 0.6-10.5 0.8l-5.3 0.4c-0.9 0-1.7 0.1-2.6 0.2l-2.6 0.3c-3.5 0.4-7 0.7-10.5 1z"/>
			<path id="Layer" class="s4" d="m209.3 374.7c3.5-0.5 6.9-0.9 10.3-1.3 1.8-0.2 3.5-0.5 5.2-0.6l5.3-0.3c3.5-0.1 6.9-0.3 10.5-0.4 3.5-0.2 7-0.3 10.5-0.4q-5.2 0.4-10.4 0.7c-3.5 0.1-7 0.4-10.5 0.5-1.8 0.1-3.5 0.2-5.2 0.3l-5.2 0.5q-5.3 0.6-10.5 1z"/>
			<path id="Layer" class="s4" d="m206.7 373.2q5-1.1 10.2-1.9 0.6-0.1 1.3-0.1 0.2-0.1 0.3-0.1 0.2 0 0.4 0 0.1 0 0.3 0 0.2 0 0.4 0l2.6-0.1 5.3-0.2q10.6-0.3 21.1-0.4-10.5 0.4-21.1 0.8l-5.3 0.2-2.6 0.1q-0.3 0-0.6 0-0.4 0-0.7 0.1-0.3 0-0.6 0-0.3 0.1-0.7 0.1c-3.4 0.5-6.8 1.1-10.3 1.5z"/>
			<path id="Layer" class="s4" d="m203.9 371.4c3.3-0.7 6.7-1.3 10.2-1.9q0.6-0.1 1.3-0.2 0.2 0 0.3 0 0.2 0 0.4 0 0.1 0 0.3 0 0.2 0 0.3 0l2.7-0.1 5.3-0.2q10.5-0.3 21.1-0.4c-7 0.3-14.1 0.5-21.1 0.8l-5.3 0.2-2.6 0.1q-0.3 0-0.7 0-0.3 0-0.6 0.1-0.3 0-0.6 0-0.4 0.1-0.7 0.1c-3.4 0.5-6.8 1.1-10.3 1.5z"/>
			<path id="Layer" class="s4" d="m201.1 369.6q5-1.1 10.2-1.9 0.6-0.1 1.3-0.2 0.2 0 0.3 0 0.2 0 0.4 0 0.1 0 0.3 0 0.2-0.1 0.3-0.1h2.7l5.3-0.2q10.5-0.3 21.1-0.4-10.6 0.4-21.1 0.8l-5.3 0.1-2.6 0.2q-0.4 0-0.7 0-0.3 0-0.6 0-0.3 0.1-0.7 0.1-0.3 0.1-0.6 0.1c-3.4 0.5-6.8 1.1-10.3 1.5z"/>
			<path id="Layer" class="s4" d="m198.3 367.8c3.3-0.8 6.7-1.4 10.2-1.9l1.3-0.2c0.4 0 0.9 0 1.3-0.1l2.7-0.1 5.2-0.1q10.6-0.3 21.2-0.4c-7 0.3-14.1 0.5-21.1 0.8l-5.3 0.1-2.7 0.1q-0.3 0-0.6 0.1-0.3 0-0.6 0-0.3 0.1-0.7 0.1-0.3 0.1-0.6 0.1c-3.4 0.5-6.9 1.1-10.3 1.5z"/>
			<path id="Layer" class="s4" d="m194.5 366.2q5-1.1 10.1-1.9 0.7-0.1 1.4-0.2 0.1 0 0.3 0 0.2 0 0.3-0.1 0.2 0 0.4 0 0.1 0 0.3 0l2.7-0.1 5.2-0.1q10.6-0.3 21.2-0.5-10.6 0.5-21.1 0.8l-5.3 0.2-2.7 0.1q-0.3 0-0.6 0.1-0.3 0-0.6 0-0.4 0-0.7 0.1-0.3 0-0.6 0.1c-3.5 0.5-6.9 1-10.3 1.5z"/>
			<path id="Layer" class="s4" d="m190.8 364.6c3.3-0.8 6.7-1.4 10.1-1.9l1.3-0.2c0.5 0 1-0.1 1.4-0.1l2.7-0.1 5.2-0.1q10.6-0.3 21.2-0.5-10.6 0.5-21.1 0.8l-5.3 0.2-2.7 0.1q-0.3 0-0.6 0-0.3 0.1-0.6 0.1-0.4 0-0.7 0.1-0.3 0-0.6 0.1c-3.5 0.5-6.9 1-10.3 1.5z"/>
			<path id="Layer" class="s4" d="m187.9 362.8c3.4-0.8 6.8-1.4 10.2-1.9q0.7-0.1 1.3-0.2 0.2 0 0.4 0 0.1-0.1 0.3-0.1 0.2 0 0.3 0 0.2 0 0.4 0h2.6l5.3-0.1q10.6-0.1 21.1-0.2-10.5 0.3-21.1 0.6l-5.3 0.1h-2.6q-0.3 0.1-0.6 0.1-0.4 0-0.7 0-0.3 0.1-0.6 0.1-0.3 0.1-0.6 0.1c-3.5 0.5-6.9 1-10.4 1.5z"/>
			<path id="Layer" class="s4" d="m185.1 360.9q5-1.1 10.2-1.8 0.6-0.1 1.3-0.2 0.2 0 0.3-0.1 0.2 0 0.4 0 0.1 0 0.3 0 0.2 0 0.3 0h2.7 5.3c7 0 14 0 21.1 0.1q-10.6 0.2-21.1 0.3h-5.3-2.6q-0.4 0-0.7 0-0.3 0-0.6 0.1-0.3 0-0.6 0-0.4 0.1-0.7 0.1c-3.4 0.5-6.8 1.1-10.3 1.5z"/>
			<path id="Layer" class="s4" d="m182.3 359.1c3.3-0.7 6.7-1.3 10.1-1.8q0.7-0.2 1.4-0.2 0.1 0 0.3-0.1 0.2 0 0.3 0 0.2 0 0.4 0 0.1 0 0.3 0h2.6l5.3 0.1c3.5 0 7 0.2 10.5 0.2q5.3 0.2 10.5 0.4c-7 0-14-0.2-21-0.3h-5.3-2.6q-0.3 0-0.6 0-0.3 0-0.6 0.1-0.4 0-0.7 0-0.3 0.1-0.6 0.1c-3.4 0.6-6.8 1.1-10.3 1.5z"/>
			<path id="Layer" class="s4" d="m163.1 387q5.8-0.9 11.5-1.6c3.8-0.5 7.7-1 11.5-1.5 1.9-0.2 3.8-0.4 5.8-0.6l5.8-0.5c3.8-0.3 7.7-0.6 11.5-0.8q-5.7 0.6-11.5 1.1l-5.8 0.5c-1.9 0.2-3.8 0.5-5.8 0.7l-11.4 1.4c-3.9 0.4-7.7 0.8-11.6 1.3z"/>
			<path id="Layer" class="s4" d="m217.5 381q5.8-0.7 11.6-1.4c3.9-0.5 7.7-0.9 11.6-1.3q2.9-0.3 5.7-0.6l5.9-0.4q5.8-0.4 11.7-0.7-5.8 0.6-11.7 1.1l-5.7 0.4c-2 0.2-3.9 0.4-5.8 0.6l-11.6 1.2q-5.9 0.6-11.7 1.1z"/>
		</g>
		<g id="freepik--character-1--inject-10">
			<path id="Layer" class="s5" d="m105.8 219.7c8.7 39.3 27 86.3 34.8 94 10 9.7 76.4 27.8 79.7 28.2 8.2 0.9 24.4-53.9 15.7-55.2-13.4-2-61-9.2-63.9-12.2-2.9-3-23.2-29.1-44-58.3-14.4-20.2-27.7-20.8-22.3 3.5z"/>
			<path id="Layer" class="s5" d="m213.8 339.9c0.9 0.4 13.8 7 21.8 9.4 6 1.8 23.2 6.4 25.8 0 1.8-4.3-8.1-8.2-14.9-11.1-3.7-1.6-8.1-5.4-7-7.8 1.9-4.1 11.2 0.1 17.3 3.8 11.9 7 27.7 19.6 35 13.6 2.8-2.3-0.4-6.5-5-10.6 7.5 4.8 15.6 8.8 18.8 6.4 1.8-1.4 1.9-3.3 0.9-5.5 2.3 0.8 4.4 0.7 5.9-0.8 2.5-2.6 1.3-6.4-1.4-10.3q0.4-0.1 0.7-0.2 0.3-0.1 0.6-0.3 0.3-0.2 0.6-0.4 0.2-0.3 0.4-0.6c5.3-7.9-20.7-31-29.8-33.2-26.6-6.5-54.6-5.5-54.6-5.5-10.4 8.2-15.1 53-15.1 53.1z"/>
			<path id="Layer" class="s0" d="m253.1 315.6q2.4 0.4 4.7 1.1 2.3 0.6 4.6 1.5 2.2 0.8 4.3 1.9 2.1 1.2 4.1 2.5c6.7 4.5 11.2 9.7 16.8 15 0.2 0.2-0.1 0.4-0.2 0.3-2.7-2.6-13.8-12-16.7-14.2q-1.9-1.5-4-2.7-2.1-1.3-4.3-2.3-2.2-1-4.6-1.7-2.3-0.8-4.7-1.3 0 0 0 0 0 0 0 0 0 0 0-0.1 0 0 0 0z"/>
			<path id="Layer" class="s0" d="m258.2 304.4c6.9 2 14.1 4 20.6 7.3 7.1 3.7 12.6 9.6 18 15.3 3.3 3.5 6.4 7 9.5 10.6 0.2 0.1 0 0.3-0.2 0.2q-8.2-8.9-17-17.2-2-2-4.2-3.7-2.2-1.7-4.6-3.3-2.4-1.5-4.9-2.7-2.4-1.3-5.1-2.3c-4-1.6-8.1-2.8-12.2-4.1q0 0 0 0 0 0 0 0 0-0.1 0-0.1 0.1 0 0.1 0z"/>
			<path id="Layer" class="s0" d="m265.7 294.6c6.8 1.4 12.8 2.6 18.7 6.3 7.9 4.9 15.6 13.1 18.3 16 2.9 3.2 5.7 6.5 8.6 9.8 0.1 0.2-0.2 0.4-0.3 0.2q-2.4-2.7-4.9-5.4-2.5-2.7-5-5.2-2.6-2.6-5.3-5.1-2.6-2.5-5.4-4.9-1.3-1.2-2.6-2.3-1.4-1.1-2.9-2-1.4-1-2.9-1.8-1.6-0.9-3.2-1.6-1.6-0.6-3.2-1.2-1.6-0.6-3.3-1.1-1.6-0.5-3.3-0.9-1.7-0.4-3.3-0.8c-1.2-0.2 0 0 0 0z"/>
			<path id="Layer" class="s1" d="m225.4 279.2l-20.9 64.7c0 0-55.2-16.2-65.3-27.2-10-11-28.3-67.5-33.5-94.8-5.3-27.4 8.5-26.7 21-9.3 12.6 17.4 43.9 59.3 45.7 60.2 1.7 0.9 53 6.4 53 6.4z"/>
			<path id="Layer" class="s0" d="m198.4 314.3c2.3-7.3 4.8-14.5 7-21.8 1.1-4.1 2.4-8.3 3.5-12.4 0-0.2-0.2-0.3-0.3-0.1-2.6 7.1-5.3 14.3-7.6 21.6-2.3 7.2-4.7 14.4-6.9 21.7-1.3 4.1-2.4 8.3-3.5 12.5 0 0 0.1 0.1 0.1 0 2.9-7 5.3-14.3 7.7-21.5z"/>
			<path id="Layer" class="s2" d="m176.6 334.7l-2.4-0.8c-4.6-1.7-9.3-3.5-13.7-5.4l-1.7-0.7-2.6-1.1q-0.7-0.3-1.3-0.6-0.2-0.1-0.5-0.2l-1.3-0.6c-1.7-0.8-3.5-1.7-5-2.5l-1-0.6q-0.9-0.4-1.8-1-0.9-0.5-1.7-1.1-0.9-0.5-1.7-1.1-0.8-0.7-1.6-1.3l-0.6-0.5q0-0.1-0.1-0.2-0.1 0-0.1-0.1-0.1-0.1-0.2-0.1 0-0.1-0.1-0.1c-10-11-28.3-67.5-33.5-94.9 0-0.3-0.2-0.6-0.2-1q0 0 0 0 0 0 0-0.1 0 0 0 0 0 0 0-0.1c-0.4-2-0.7-4.6-0.9-7.4-0.7-13.6 5.7-15.8 13.6-9.7 19.6 42.7 49.4 113.1 58.4 131.2z"/>
			<path id="Layer" class="s1" d="m151.7 352.1l-136-0.2c0.3-2.7 38.7-129.8 64.8-151.4 11.1-9.3 31.5-2.5 34.1-0.4 25.2 20.6 39 150.4 37.1 152z"/>
			<path id="Layer" class="s5" d="m70.6 216.9c-29.7 36.1-64.2 108-55.3 121.4 10 15.1 51-34 50.6-36.7-0.3-2 11.9-45.9 21.2-77.8 9.4-31.9-9.2-15.9-16.5-6.9z"/>
			<path id="Layer" class="s1" d="m66.2 301.6c1-4.6 17.8-62.5 22.4-80.7 4.6-18.3-1.7-23.2-18-5.4-16.3 17.7-49.8 72.7-56.1 102.2-6.1 28.4 7.5 29.9 25.1 15.4 14.4-11.8 26.6-31.5 26.6-31.5z"/>
			<path id="Layer" class="s0" d="m64.1 309.1c1.3-5.5 2.7-10.9 4.1-16.4 1.4-5.4 3-10.8 4.4-16.3 1.5-5.4 3.1-10.8 4.7-16.2l2.4-8.1c0.9-2.7 1.7-5.4 2.6-8.1-0.7 2.8-1.4 5.5-2 8.3l-2.1 8.1c-1.5 5.5-3 10.9-4.5 16.3-1.4 5.5-3 10.9-4.6 16.2-1.5 5.4-3.3 10.9-5 16.2z"/>
			<path id="Layer" class="s0" d="m79 256.7q0.2-0.5 0.4-1.1 0.1-0.5 0.4-1 0.2-0.5 0.4-1 0.3-0.5 0.5-1 0.3-0.5 0.6-1 0.3-0.5 0.6-0.9 0.3-0.5 0.6-1 0.3-0.4 0.6-0.9-0.1 0.6-0.3 1.1-0.1 0.6-0.3 1.1-0.2 0.5-0.5 1-0.2 0.5-0.5 1-0.3 0.5-0.5 1-0.3 0.5-0.6 0.9-0.4 0.5-0.7 0.9-0.3 0.5-0.7 0.9z"/>
			<path id="Layer" class="s5" d="m15.7 338.9c8.6 10.3 27.5 11.1 80.3 16.6 7.3 0.7 28.1-50.4 20.3-51.6-9.8-1.5-48.1-5.3-50.9-5.2-24 0.6-55.6 33.3-49.7 40.2z"/>
			<path id="Layer" class="s6" d="m144.4 289.8c0 0-5.8-10.3 1.6-13.6 7.3-3.4 11.3 7.7 11.3 7.7z"/>
			<path id="Layer" class="s6" d="m191.5 358.5l-0.6 11.4-0.1 3.8-3-2.3-9.1-7-34.5-75 12.9-5.9 34.4 75z"/>
			<path id="Layer" class="s7" d="m190.9 369.9l-0.1 3.8-3-2.3 3.1-1.5z"/>
			<path id="Layer" class="s7" d="m143 289.4l15-6.9 1.4 3-15 6.9z"/>
			<path id="Layer" class="s7" d="m144.5 292.7l15-6.9 1.4 3-15 6.9z"/>
			<path id="Layer" class="s7" d="m145.8 295.7l4.9-2.2 9.8 28.4-1.9 0.7-12.8-26.9z"/>
			<path id="Layer" class="s5" d="m181.5 334.9c-2.3 6.3-17.4-0.7-17.4-0.7q0.7 0.9 1.1 1.8 0.5 1 0.8 2 0.3 1.1 0.5 2.1 0.1 1.1 0 2.2c-0.5 5.1-8.7 6.4-8.7 6.4q0.4 1.1 0.8 2.2 0.3 1.1 0.4 2.2 0.2 1.2 0.1 2.3 0 1.1-0.2 2.3c-1 4.8-9.1 7.4-9.1 7.4q-0.1 1.1-0.4 2.3-0.3 1.2-0.8 2.3-0.5 1-1.2 2-0.6 1-1.5 1.9c-6.4 5.7-19 2.3-27.1 0.1-8.1-2.2-30.2-17.7-34.4-19.9l14.5-50.2c0 0 39-0.6 48.2 3.3 7.6 3.3 37.9 18.3 34.4 28z"/>
			<path id="Layer" class="s0" d="m164 333.9c-7.3-5.4-16-9.1-24.4-12.5-0.1-0.1-0.3 0.2-0.1 0.3 8.4 3.3 16.1 9 24.3 12.6q0.1 0.1 0.2 0 0 0 0.1-0.1 0 0 0-0.1 0-0.1-0.1-0.2z"/>
			<path id="Layer" class="s0" d="m157.7 348q-0.6-0.4-1.3-0.8-0.7-0.3-1.5-0.6-0.7-0.3-1.4-0.6-0.8-0.3-1.5-0.5-3.2-1.1-6.3-2.1-6.4-2-12.8-3.7c-0.1-0.1-0.3 0.2-0.1 0.3q6.3 2 12.5 4.3 3.1 1.1 6.2 2.3 0.8 0.3 1.5 0.6 0.7 0.3 1.5 0.5 0.7 0.3 1.5 0.5 0.7 0.2 1.5 0.3 0.1 0 0.2 0 0-0.1 0.1-0.1 0-0.1 0-0.2 0-0.1-0.1-0.2z"/>
			<path id="Layer" class="s0" d="m149.6 365c-1.4-1.1-3.5-1.5-5.3-2q-2.9-0.8-5.7-1.7c-3.9-1.2-7.8-2.3-11.6-3.7-0.2-0.1-0.3 0.2-0.1 0.3 3.8 1.3 7.7 2.7 11.5 4.1q2.9 1 5.8 1.9 0.6 0.3 1.2 0.5 0.7 0.2 1.4 0.4 0.6 0.1 1.3 0.2 0.7 0.1 1.4 0.2c0.2 0 0.2-0.2 0.1-0.2z"/>
			<path id="Layer" class="s1" d="m110.2 302.1l-40.8 54.7c0 0-46.4-6.6-54.3-17.7-5.1-7.3 26.1-41.7 52.5-40.4z"/>
			<path id="Layer" class="s0" d="m37.2 309.7c3.9-3.5 15.2-11.7 30.5-11.1 0.1 0 0.1 0.2 0 0.2-11.5 0.7-26.3 8.1-30.4 11.1-0.1 0-0.2-0.1-0.1-0.2z"/>
			<path id="Layer" class="s0" d="m56.2 349.5c4.1-6.2 8.6-12.3 13.1-18.3 4.6-6 9.1-12 13.8-18 2.6-3.3 5.2-6.6 8-9.9 0-0.1 0.2 0 0.1 0.1-4.1 6.3-8.6 12.3-13.1 18.4-4.4 6-9 12-13.6 18-2.6 3.4-5.3 6.7-8 9.9-0.2 0.1-0.5 0-0.3-0.2z"/>
			<path id="Layer" class="s0" d="m110.3 301.4q-1.1-0.2-2.2-0.4-1.1-0.2-2.2-0.3-1.1-0.2-2.2-0.3-1.1-0.1-2.1-0.2-4.4-0.4-8.8-0.7c-5.8-0.4-18.1-1.9-28.7-0.9-0.1 0 0.5 0.5 0.7 0.5 5-0.7 41.7 3.2 44.7 3.1q0 0.1 0 0.2-0.1 0.1-0.1 0.1 0 0.1-0.1 0.2 0 0.1 0 0.2c0 0.1 0.1 0.3 0.2 0.2 0.4-0.3 0.6-0.6 0.9-1q0.1 0 0.2-0.2 0-0.1 0-0.2 0-0.1-0.1-0.2-0.1-0.1-0.2-0.1z"/>
			<path id="Layer" class="s0" d="m43.7 351.9q-1.7-0.3-3.3-0.6-1.7-0.4-3.3-0.9-1.7-0.4-3.3-0.9-1.6-0.5-3.2-1.1-1.6-0.6-3.2-1.3-1.5-0.6-3.1-1.4-1.5-0.8-2.9-1.6-1.5-0.9-2.9-1.9c2.1 1 4.1 1.8 6.2 2.7 2.1 0.9 4.2 1.6 6.3 2.4 4.2 1.6 8.5 3 12.7 4.6z"/>
			<path id="Layer" class="s1" d="m112 225.3c0 0-26-16.4-39.8-13l-9.6 13.1c0 0-3.6 2.1-5.4-0.1-4.3-5.4-8-20.1 2.6-32.3 9.7-11.3 28.9-14.7 45.6-13.9 16.1 0.7 31.5 8 28.9 18.9-2.5 11-22.3 27.3-22.3 27.3z"/>
			<path id="Layer" class="s2" d="m112.6 220.3c0 0 14.8-16.2 15-24 0.3-7.8-16.1-11.6-26.2-12.4-15.8-1.1-25.6 2-32.2 11.7-6.6 9.7 43.4 24.7 43.4 24.7z"/>
			<path id="Layer" class="s5" d="m113.6 218.8c-7 3.2-21.9-5.5-28.8-13.6-0.5-0.5-0.8-7.3-1.7-15.5-0.5-5-1.3-10.6-2.3-15.6-0.2-1 33 1.2 33 1.2 0 0-0.9 11.2 0.9 19.9q0.1 0.2 0.1 0.5 0.1 0.3 0.2 0.5 0 0.3 0.1 0.5 0.1 0.3 0.2 0.5c0 0.1 0.1 0.2 0.1 0.3 1.5 3.8 5 18.1-1.8 21.3z"/>
			<path id="Layer" class="s0" d="m82.8 173.8c3.2 8.2 12.6 27.6 29.5 24.6q0.4-0.1 0.8-0.2 0.4-0.1 0.8-0.2 0.4-0.1 0.8-0.2 0.4-0.1 0.8-0.3 0 0-0.1-0.1 0 0 0 0 0-0.1 0-0.1 0-0.1-0.1-0.1-0.1-0.3-0.1-0.5-0.1-0.2-0.2-0.5-0.1-0.2-0.2-0.5 0-0.3-0.1-0.5c-1.8-8.8-0.9-19.9-0.9-19.9 0 0-23.9-1.6-31-1.5z"/>
			<path id="Layer" class="s5" d="m70.8 134.9c-1.9 11.7 8.4 43.5 17.4 49.7 13 9 32.2 7.5 39.3-7.7 6.9-14.7-7.3-55.9-17.1-61.3-14.6-8-36.7 1.9-39.6 19.3z"/>
			<path id="Layer" class="s0" d="m105.4 150.5c0-0.1-0.1 0.2-0.1 0.3 0.8 2.1 1.4 4.6-0.2 6 0 0 0 0.1 0 0.1 2.3-1.2 1.4-4.5 0.3-6.4z"/>
			<path id="Layer" class="s0" d="m102.7 149c-3.5 1-1.3 7.9 2 6.9 3.2-0.9 0.9-7.7-2-6.9z"/>
			<path id="Layer" class="s0" d="m117.4 146.8c0-0.1 0.2 0 0.3 0.1 0.6 2.2 1.6 4.6 3.8 4.6 0 0 0.1 0.1 0 0.2-2.4 0.4-3.8-2.8-4.1-4.9z"/>
			<path id="Layer" class="s0" d="m118.6 143.9c3.4-1.3 5.8 5.5 2.8 6.8-3.1 1.2-5.6-5.6-2.8-6.8z"/>
			<path id="Layer" class="s0" d="m99.1 147.6q0.3-0.2 0.6-0.3 0.4-0.2 0.7-0.4 0.3-0.1 0.7-0.3 0.3-0.2 0.6-0.4 0.4-0.1 0.7-0.3 0.4-0.2 0.7-0.4 0.3-0.3 0.6-0.6 0.3-0.3 0.5-0.6 0.1-0.2 0.1-0.5 0-0.2-0.1-0.5 0-0.2-0.2-0.4-0.1-0.2-0.3-0.4-0.5-0.2-1-0.4-0.5-0.1-1-0.1-0.5 0.1-1 0.2-0.4 0.1-0.9 0.4-0.4 0.2-0.9 0.5-0.4 0.3-0.8 0.7-0.3 0.3-0.6 0.7-0.3 0.5-0.6 0.9-0.1 0.5 0 1 0.1 0.4 0.4 0.8 0.4 0.3 0.8 0.4 0.5 0.1 1 0z"/>
			<path id="Layer" class="s0" d="m120.2 137.9q-0.4 0-0.7 0-0.4 0.1-0.8 0.1-0.4 0-0.7 0-0.4 0-0.8 0-0.4 0.1-0.8 0.1-0.3 0-0.7 0-0.4-0.1-0.8-0.2-0.4-0.1-0.7-0.3-0.2-0.2-0.4-0.4-0.1-0.2-0.2-0.4-0.1-0.3 0-0.5 0-0.3 0.1-0.5 0.2-0.4 0.6-0.8 0.4-0.3 0.8-0.6 0.5-0.2 1-0.3 0.5-0.2 1-0.1 0.5-0.1 1-0.1 0.5 0.1 1 0.2 0.5 0.1 1 0.3 0.5 0.3 0.9 0.6 0.4 0.3 0.5 0.7 0.2 0.5 0 1-0.1 0.4-0.4 0.8-0.4 0.3-0.9 0.4z"/>
			<path id="Layer" class="s0" d="m108.2 171.6q0.2 0.2 0.5 0.3 0.2 0.1 0.5 0.2 0.3 0.1 0.6 0.2 0.3 0 0.6 0 0.3-0.1 0.5-0.3 0.3-0.1 0.6-0.2 0.3-0.2 0.5-0.4 0.3-0.2 0.5-0.4 0 0 0 0 0.1 0 0.1 0 0 0 0 0 0 0.1 0 0.1-0.1 0.4-0.3 0.7-0.2 0.4-0.6 0.6-0.3 0.3-0.6 0.5-0.4 0.1-0.8 0.2-0.3 0-0.7 0-0.3-0.1-0.7-0.3-0.3-0.2-0.5-0.5-0.2-0.2-0.4-0.5c-0.1-0.2 0.1-0.3 0.2-0.2z"/>
			<path id="Layer" class="s0" d="m108.4 164.5q0.6 0.5 1.3 0.8 0.7 0.4 1.4 0.6 0.8 0.2 1.6 0.3 0.8 0.1 1.6 0 0.3-0.1 0.7-0.2 0.3 0 0.6-0.1 0.4-0.1 0.7-0.2 0.3-0.1 0.6-0.3 0.1 0 0.2 0 0 0 0.1-0.1 0.1 0 0.1 0 0.1 0 0.1-0.1l0.5-0.2q0.1 0 0.1-0.1 0.1-0.1 0.1-0.2 0.1 0 0.1-0.1 0-0.1 0-0.2-0.1 0-0.1-0.1 0 0 0 0 0-0.1 0-0.1 0 0 0 0l-0.1-0.2c-0.5-1.7-1.4-4.1-1.4-4.1 0.7 0.1 4.2 0.5 3.9-0.4-2.7-7-5.7-14.8-9.9-21.2q0-0.1-0.1-0.1-0.1 0-0.2 0-0.1 0.1-0.1 0.1 0 0.1 0 0.2c2.3 6.8 5.9 13.2 8.3 20q-0.5 0-0.9-0.1-0.5 0-1 0-0.5 0-0.9 0-0.5 0.1-1 0.1c-0.2 0.2 2 4.8 2.1 5.5q0 0.1 0 0.1 0 0 0 0 0 0 0 0 0 0 0 0c-2.6 1.3-5 1.1-8.3 0.1-0.2-0.1-0.3 0.1-0.1 0.3z"/>
			<path id="Layer" class="s0" d="m115.7 164.9q-0.2 0.6-0.5 1.1-0.2 0.5-0.6 1-0.3 0.5-0.7 0.9-0.4 0.4-0.8 0.8-0.3 0.2-0.5 0.4-0.3 0.1-0.6 0.2-0.3 0.2-0.6 0.2-0.3 0.1-0.6 0.1c-1.9 0.1-2.4-1.5-2.5-2.9q-0.1-0.3-0.1-0.6 0-0.3 0.1-0.6 0-0.2 0-0.5 0-0.3 0.1-0.6 0.8 0.3 1.8 0.6 0.9 0.2 1.8 0.2 0.9 0.1 1.9 0 0.9-0.1 1.8-0.3z"/>
			<path id="Layer" class="s8" d="m113.1 168.7q-0.3 0.2-0.5 0.4-0.3 0.1-0.6 0.2-0.3 0.2-0.6 0.2-0.3 0.1-0.6 0.1c-1.9 0.1-2.4-1.5-2.5-2.9 1.9-0.4 4.1 0.3 4.8 2z"/>
			<path id="Layer" class="s0" d="m83.4 152.2c1.4-6.9-3.8-17.5-0.9-20.8 6.3-7.4 22.5 3.1 32.5 1.9 9.8-1.2 12.2-7.9 9.5-15.6-2.8-7.6-10.2-12.1-21.3-12.3-11.5-0.3-21.2 5.6-26.3 9.9 0 0 1.9-4.2 0.8-5.4-1-1.1-5.3 3.3-6.6 5.1q-0.3 0.6-0.6 1.2-0.3 0.6-0.5 1.3-0.2 0.6-0.4 1.2-0.1 0.7-0.2 1.3-0.6 0-1.2-0.1-0.5 0-1.1 0-0.6 0-1.1 0.1-0.6 0-1.1 0.1c-2.5 0.4-5.4 2.7-5.5 3.4-0.1 0.6 3.5 0.6 6 0.4 0 0-3.8 6.7-3.1 11.9 0.8 5.3 12.2 29.2 14.2 29.2 2.6 0 6.3-10 6.9-12.8z"/>
			<path id="Layer" class="s0" d="m66.3 123.1c0.1-0.1 0.2 0 0.1 0.1q-0.8 0.9-1.5 1.8-0.6 0.9-1.2 2-0.5 1-0.9 2.1-0.4 1.1-0.7 2.2-0.2 1.4-0.2 2.8 0 1.4 0.1 2.7 0.2 1.4 0.5 2.7 0.4 1.4 0.9 2.7c2.4 6.7 6.6 12.5 10.3 18.5 0.2 0.1-0.1 0.3-0.3 0.2-4.3-6.1-8.8-12.8-11.1-20-2-6.1-1.4-13.5 4-17.8z"/>
			<path id="Layer" class="s0" d="m81.8 128.8q1.1-0.2 2.2-0.4 1.1-0.2 2.2-0.3 1.1 0 2.3 0 1.1 0 2.2 0.2c2.8 0.3 5.4 1.7 8.1 2.8 5.9 2.3 12.3 3.8 18.6 2.6q0 0 0 0 0 0 0 0.1 0 0 0 0 0 0 0 0c-5.8 1.5-11.7 0.5-17.2-1.4-2.8-1-5.5-2.5-8.4-3.2-3.2-0.7-6.6-0.2-9.9 0.2q-0.1 0-0.2-0.1-0.1 0-0.1-0.1 0-0.1 0-0.2 0.1-0.1 0.2-0.2z"/>
			<path id="Layer" class="s0" d="m82.5 111.8q1.4-1 2.8-1.8 1.5-0.8 3-1.5 1.5-0.7 3-1.3 1.6-0.7 3.1-1.2 1.5-0.5 3.1-0.9 1.5-0.4 3.1-0.6 1.6-0.3 3.2-0.4 1.6-0.1 3.2-0.1c7.3 0.3 14.5 4 17.2 11.2q0.5 1.3 0.7 2.8 0.3 1.4 0.3 2.9 0 1.5-0.3 2.9-0.2 1.4-0.7 2.8-0.1 0.1-0.2 0.1 0 0-0.1 0-0.1 0-0.1-0.1 0-0.1 0-0.2c0.5-1.6 0.8-3.4 0.8-5.1 0-1.8-0.3-3.5-0.8-5.2-0.6-1.7-1.4-3.2-2.4-4.6-1.1-1.4-2.3-2.7-3.8-3.7-6.5-4.3-14.9-3.7-22.1-1.6q-1.7 0.6-3.3 1.2-1.7 0.6-3.3 1.3-1.6 0.7-3.2 1.5-1.6 0.7-3.2 1.6c-1 0.6 0 0 0 0z"/>
			<path id="Layer" fill-rule="evenodd" class="s1" d="m104.3 165.4c-3.8 0.7-7.6-0.7-9.9-3.8-2.3-3-2.6-7.1-0.9-10.5 1.8-3.4 5.3-5.5 9.1-5.4 3.8 0.1 7.2 2.3 8.8 5.7 0.6 1.2 0.9 2.5 0.9 3.8 0.1 1.3-0.1 2.6-0.6 3.8-0.4 1.3-1.1 2.4-2 3.4-0.8 0.9-1.9 1.7-3.1 2.3q-0.3 0.1-0.6 0.2-0.2 0.1-0.5 0.2-0.3 0.1-0.6 0.2-0.3 0.1-0.6 0.1zm-3.5-18.2q-0.3 0-0.5 0.1-0.3 0.1-0.5 0.1-0.3 0.1-0.6 0.2-0.2 0.1-0.4 0.2c-4.2 2-6.1 6.8-4.4 11 1.7 4.2 6.3 6.4 10.7 5 4.3-1.4 6.8-5.9 5.7-10.3-1.2-4.4-5.5-7.2-10-6.3z"/>
			<path id="Layer" fill-rule="evenodd" class="s1" d="m126 158.5c-3.7 0.7-7.8-2.5-9.4-7.5q-0.3-0.9-0.5-1.8-0.1-0.9-0.1-1.8 0-0.9 0.1-1.9 0.1-0.9 0.4-1.8c0.3-1 0.8-1.9 1.5-2.7 0.7-0.8 1.7-1.4 2.7-1.7 1-0.3 2.1-0.4 3.1-0.2 1.1 0.3 2 0.7 2.8 1.5q0.8 0.5 1.4 1.2 0.6 0.7 1.2 1.4 0.5 0.8 0.9 1.6 0.4 0.9 0.6 1.8c1.7 5.2-0.1 10.5-4 11.7q-0.1 0-0.2 0-0.1 0.1-0.2 0.1 0 0-0.1 0-0.1 0-0.2 0.1zm-4.4-18.1q-0.1 0-0.2 0.1 0 0-0.1 0 0 0-0.1 0-0.1 0-0.1 0.1-0.6 0.2-1.2 0.5-0.5 0.4-0.9 0.9-0.4 0.4-0.8 1-0.3 0.5-0.4 1.2-0.3 0.7-0.4 1.6-0.1 0.8-0.1 1.6 0 0.8 0.2 1.6 0.1 0.8 0.4 1.6c1.4 4.6 5.2 7.4 8.4 6.4 3.2-1 4.6-5.5 3.2-10q-0.3-0.8-0.6-1.6-0.4-0.7-0.8-1.4-0.5-0.7-1-1.3-0.6-0.6-1.2-1.1-0.5-0.3-1-0.6-0.5-0.3-1.1-0.4-0.5-0.2-1.1-0.2-0.6 0-1.1 0z"/>
			<path id="Layer" class="s1" d="m111.4 152.6l-1.1-0.7c1-1.7 3.9-4.3 6.9-2.6l-0.6 1.2c-2.7-1.6-5.1 2-5.2 2.1z"/>
			<path id="Layer" class="s1" d="m69.9 168.4l-1.3-0.2c0.1-0.6 1.1-6 3.8-7.4 2.5-1.3 20-5 20.8-5.2l0.3 1.3c-5 1.1-18.5 4.1-20.5 5.1-1.8 0.9-2.9 4.9-3.1 6.4z"/>
			<path id="Layer" class="s5" d="m81.4 160.5c0 0-9-9.4-13.4-6-4.3 3.4 3.5 17.7 9.5 18.9q1.1 0.4 2.2 0.2 1.2-0.2 2.2-0.8 1-0.6 1.7-1.5 0.7-0.9 1-2.1z"/>
			<path id="Layer" class="s0" d="m70.4 158.6q0 0-0.1 0 0 0.1 0 0.1 0 0 0 0 0.1 0.1 0.1 0.1c4.1 0.9 6.8 4.3 8.8 7.8-1.4-1.3-3.1-1.8-4.8-0.1-0.1 0.1 0 0.2 0.1 0.2q0.5-0.3 1-0.3 0.6-0.1 1.1 0 0.6 0 1.1 0.3 0.5 0.2 0.9 0.6 0.3 0.3 0.6 0.7 0.3 0.3 0.6 0.7 0.3 0.3 0.5 0.7 0.3 0.4 0.6 0.7c0.2 0.4 0.8 0 0.6-0.3q0 0 0 0 0 0 0 0 0-0.1 0-0.1 0 0 0 0c-0.7-5.1-5.7-11.5-11.1-11.1z"/>
			<path id="Layer" class="s1" d="m112.6 220.3c0 0-23.5-25.5-45.7-23.8l5.3 15.8c0 0 12.8-2.7 39.8 13z"/>
			<path id="Layer" class="s0" d="m66.4 213.9q1.4-0.4 2.9-0.7 1.5-0.3 3-0.4 1.5-0.1 3-0.1 1.5 0.1 3 0.3 1.5 0.1 3 0.4 1.5 0.2 2.9 0.6 1.5 0.3 2.9 0.7 1.4 0.4 2.9 0.9 1.4 0.5 2.8 1.1 1.4 0.5 2.8 1.1 1.4 0.5 2.7 1.2 1.4 0.6 2.7 1.3l5.4 2.8 5.2 3 0.5 0.4 0.5-0.4q1.4-1.1 2.7-2.3 1.3-1.1 2.5-2.3 1.3-1.2 2.5-2.4 1.2-1.2 2.4-2.5 0.6-0.6 1.2-1.3 0.6-0.6 1.1-1.3 0.6-0.7 1.1-1.3 0.6-0.7 1.1-1.4 0.5-0.7 1-1.4 0.5-0.7 1-1.5 0.4-0.7 0.8-1.5 0.5-0.7 0.8-1.5-0.9 1.4-2 2.8-1 1.3-2.2 2.6-1.1 1.3-2.3 2.5-1.2 1.3-2.4 2.4c-1.7 1.6-3.4 3.1-5.1 4.6-1.8 1.5-3.5 3-5.3 4.3h1l-5.2-3.2q-2.7-1.5-5.4-2.9c-1.8-0.9-3.7-1.7-5.6-2.5-1.9-0.7-3.8-1.4-5.8-2q-1.5-0.4-3-0.8-1.5-0.4-3-0.6-1.5-0.3-3-0.5-1.6-0.2-3.1-0.3c-1 0-2.1 0-3.1 0-1 0-2 0.2-3.1 0.4q-0.7 0.1-1.5 0.2-0.7 0.2-1.4 0.4-0.8 0.2-1.5 0.5-0.7 0.3-1.4 0.6z"/>
			<path id="Layer" class="s0" d="m62.6 225.4q1.4-1.5 2.7-3 1.3-1.6 2.5-3.2 1.2-1.7 2.3-3.4 1.1-1.7 2.1-3.5-1.4 1.5-2.7 3.1-1.3 1.5-2.5 3.2-1.2 1.6-2.3 3.3-1.1 1.7-2.1 3.5z"/>
			<path id="Layer" class="s1" d="m102 215.3q-0.2 2.6-0.2 5.3-0.1 2.6 0 5.2 0 2.6 0.2 5.3 0.2 2.6 0.4 5.2c0.5 4.8 4.5 22 9.8 20.7 5.3-1.2-4.8-11.4-7.5-20.4-2.6-9-1-16-1.3-21.5z"/>
			<g id="Layer" style="opacity: .1">
				<path id="Layer" class="s9" d="m102 215.3q-0.2 2.6-0.2 5.3-0.1 2.6 0 5.2 0 2.6 0.2 5.3 0.2 2.6 0.4 5.2c0.5 4.8 4.5 22 9.8 20.7 5.3-1.2-4.8-11.4-7.5-20.4-2.6-9-1-16-1.3-21.5z"/>
			</g>
			<path id="Layer" class="s1" d="m121.6 211.8q0.9 2.2 1.8 4.4 0.9 2.2 1.7 4.5 0.8 2.2 1.4 4.5 0.7 2.3 1.3 4.6c1.2 4.3 3.2 20.1-1.7 20.7-4.9 0.6 0.5-11.2-0.1-19.7-0.6-8.5-4.2-13.9-5.7-18.7z"/>
			<g id="Layer" style="opacity: .1">
				<path id="Layer" class="s9" d="m121.6 211.8q0.9 2.2 1.8 4.4 0.9 2.2 1.7 4.5 0.8 2.2 1.4 4.5 0.7 2.3 1.3 4.6c1.2 4.3 3.2 20.1-1.7 20.7-4.9 0.6 0.5-11.2-0.1-19.7-0.6-8.5-4.2-13.9-5.7-18.7z"/>
			</g>
		</g>
		<g id="freepik--Device--inject-10">
			<path id="Layer" class="s6" d="m217.8 346.6h128.7v5.8h-128.7z"/>
			<path id="Layer" class="s0" d="m217.8 346.6h64.8v5.8h-64.8z"/>
			<path id="Layer" class="s7" d="m281.1 352.4l125.4-0.1 17.7-85.1h-125.4l-17.7 85.2z"/>
			<path id="Layer" class="s10" d="m342.9 311.7c-0.1 1 0 2.1 0.3 3.1 0.3 1 0.8 2 1.5 2.8 0.8 0.8 1.6 1.4 2.6 1.8 1 0.4 2 0.7 3.1 0.6q1.7 0 3.3-0.6 1.6-0.7 2.9-1.8 1.3-1.2 2.1-2.7 0.8-1.5 1-3.2c0.1-1.1 0-2.2-0.3-3.2-0.3-1-0.8-1.9-1.6-2.7-0.7-0.8-1.5-1.5-2.5-1.9-1-0.4-2.1-0.6-3.1-0.6q-1.7 0-3.3 0.7-1.6 0.6-2.9 1.8-1.3 1.1-2.1 2.6-0.8 1.6-1 3.3z"/>
		</g>
	</g>
</svg>